<?xml version="1.0" standalone="no"?>
<!DOCTYPE svg PUBLIC "-//W3C//DTD SVG 20010904//EN"
 "http://www.w3.org/TR/2001/REC-SVG-20010904/DTD/svg10.dtd">
<svg version="1.0" xmlns="http://www.w3.org/2000/svg"
 width="512.000000pt" height="512.000000pt" viewBox="0 0 512.000000 512.000000"
 preserveAspectRatio="xMidYMid meet">

<g transform="translate(0.000000,512.000000) scale(0.100000,-0.100000)"
fill="#000000" stroke="none">
<path d="M2973 5100 c-47 -19 -165 -134 -1153 -1130 -606 -610 -1126 -1140
-1156 -1177 -105 -131 -187 -323 -220 -517 -24 -136 -15 -387 19 -517 45 -174
109 -308 202 -428 23 -31 270 -286 548 -566 533 -539 578 -579 740 -655 298
-140 688 -146 997 -16 175 74 209 102 574 470 380 382 390 396 390 516 0 107
-56 201 -152 257 -35 21 -62 27 -122 31 -129 7 -135 3 -510 -363 -350 -340
-370 -356 -510 -391 -50 -13 -92 -15 -180 -11 -127 6 -200 26 -281 78 -26 16
-269 256 -541 532 -435 443 -498 510 -530 572 -88 170 -89 389 -2 555 32 62
99 134 539 583 535 546 538 548 668 583 168 45 374 18 495 -64 22 -15 182
-165 354 -333 191 -186 331 -315 358 -329 182 -93 411 54 414 265 2 117 -5
126 -348 476 -171 175 -342 343 -380 373 -85 67 -240 148 -341 177 l-74 22
273 281 c161 166 283 300 297 326 32 61 33 174 3 241 -66 142 -232 214 -371
159z"/>
<path d="M2162 2314 c-121 -60 -179 -205 -138 -346 18 -65 79 -138 140 -171
l41 -22 1145 0 c1097 0 1146 1 1180 19 49 26 108 84 133 131 32 60 31 202 -1
265 -33 63 -69 99 -127 126 l-50 24 -1136 0 -1135 0 -52 -26z"/>
</g>
</svg>
