<svg width="16" height="16" viewBox="0 0 16 16" fill="none" xmlns="http://www.w3.org/2000/svg">
<g clip-path="url(#clip0_1_31)">
<path fill-rule="evenodd" clip-rule="evenodd" d="M7.99333 0C10.9389 0 13.3267 2.38781 13.3267 5.33333C13.3267 6.30489 13.0676 7.21524 12.613 8.00031C12.3099 8.52369 10.77 11.1903 7.99333 16C5.21666 11.1903 3.67677 8.52369 3.37368 8.00031C2.91905 7.21524 2.66 6.30489 2.66 5.33333C2.66 2.38781 5.04781 0 7.99333 0ZM7.99333 3.04762C6.73097 3.04762 5.70762 4.07097 5.70762 5.33333C5.70762 6.5957 6.73097 7.61905 7.99333 7.61905C9.2557 7.61905 10.279 6.5957 10.279 5.33333C10.279 4.07097 9.2557 3.04762 7.99333 3.04762Z" fill="#363636"/>
</g>
<defs>
<clipPath id="clip0_1_31">
<rect width="16" height="16" fill="white"/>
</clipPath>
</defs>
</svg>
