<svg width="16" height="16" viewBox="0 0 16 16" fill="none" xmlns="http://www.w3.org/2000/svg">
<path fill-rule="evenodd" clip-rule="evenodd" d="M3.17442 1.29999H12.8256C13.1765 1.29998 13.4793 1.29997 13.7299 1.31709C13.9938 1.33513 14.2577 1.37479 14.5185 1.48296C15.1065 1.72693 15.5738 2.19488 15.8173 2.78386C15.9253 3.04501 15.9649 3.30935 15.983 3.57363C16 3.82463 16 4.12789 16 4.47936V10.9406C16 11.2921 16 11.5953 15.983 11.8464C15.9649 12.1106 15.9253 12.3749 15.8173 12.6362C15.5738 13.2251 15.1065 13.6931 14.5185 13.937C14.2577 14.0452 13.9938 14.0848 13.7299 14.1029C13.4793 14.12 13.1765 14.12 12.8256 14.12H3.17441C2.82349 14.12 2.5207 14.12 2.2701 14.1029C2.00623 14.0848 1.7423 14.0452 1.48156 13.937C0.893496 13.6931 0.426272 13.2251 0.182688 12.6362C0.0746883 12.3749 0.0350883 12.1106 0.0170803 11.8464C-1.57282e-05 11.5953 -7.65387e-06 11.2921 3.46134e-07 10.9406V4.47936C-7.65387e-06 4.1279 -1.57282e-05 3.82463 0.0170803 3.57363C0.0350883 3.30935 0.0746883 3.04501 0.182688 2.78386C0.426272 2.19488 0.893496 1.72693 1.48156 1.48296C1.7423 1.37479 2.00623 1.33513 2.2701 1.31709C2.5207 1.29997 2.8235 1.29998 3.17442 1.29999ZM1.85396 3.12505C2.14491 2.79203 2.65032 2.75828 2.98283 3.04968L7.4732 6.98486C7.7748 7.24919 8.2252 7.24919 8.5268 6.98486L13.0172 3.04968C13.3497 2.75828 13.8551 2.79203 14.146 3.12505C14.437 3.45808 14.4033 3.96428 14.0708 4.25568L9.5804 8.1909C8.67552 8.98389 7.32448 8.98389 6.4196 8.1909L1.92922 4.25568C1.59671 3.96428 1.56302 3.45808 1.85396 3.12505Z" fill="#363636"/>
</svg>
