<svg width="16" height="16" viewBox="0 0 16 16" fill="none" xmlns="http://www.w3.org/2000/svg">
<g clip-path="url(#clip0_1_44)">
<path d="M10.5312 6.76801C10.5749 7.19673 10.6 7.61166 10.6 8.00001C10.6 8.72694 10.5122 9.54781 10.3778 10.3778C9.54781 10.5122 8.72694 10.6 8 10.6C7.27634 10.6 6.45572 10.5124 5.62218 10.3775C5.48786 9.54759 5.4 8.72686 5.4 8.00001C5.4 7.61181 5.42506 7.19681 5.46887 6.76801C6.34368 6.90804 7.21638 7.00001 8 7.00001C8.7837 7.00001 9.65638 6.90804 10.5312 6.76801Z" fill="#363636"/>
<path d="M11.7144 6.55194C11.7685 7.05365 11.8 7.54211 11.8 8.00001C11.8 8.66813 11.7331 9.40108 11.6266 10.145C13.1371 9.8298 14.5333 9.42714 15.2813 9.19788C15.523 9.12382 15.618 9.09434 15.7454 9.04337C15.8091 9.01792 15.8674 8.99201 15.9435 8.95567C15.9808 8.6423 16 8.32337 16 8.00001C16 7.14516 15.8659 6.32164 15.6177 5.54932L15.553 5.56967C14.7709 5.80759 13.3068 6.2282 11.7144 6.55194Z" fill="#363636"/>
<path d="M15.1632 4.43389C14.377 4.67216 13.0126 5.05934 11.5504 5.36078C11.2136 3.31372 10.6232 1.27201 10.3392 0.347412C12.4512 0.992204 14.1922 2.48737 15.1632 4.43389Z" fill="#363636"/>
<path d="M10.3708 5.57889C9.54309 5.71262 8.7248 5.8 8 5.8C7.2752 5.8 6.45697 5.71262 5.62928 5.5789C5.94645 3.64194 6.51261 1.66328 6.80213 0.718728C6.87619 0.476998 6.90568 0.38205 6.95665 0.254613C6.9821 0.190949 7.008 0.132556 7.04434 0.0564876C7.35771 0.0191847 7.67665 0 8 0C8.33783 0 8.67071 0.0209371 8.99756 0.0615848C9.0045 0.0881067 9.0109 0.11184 9.01722 0.134293C9.03596 0.200632 9.0653 0.293867 9.11451 0.450316L9.1197 0.466751C9.36648 1.25122 10.0205 3.43925 10.3708 5.57889Z" fill="#363636"/>
<path d="M4.44955 5.36077C4.78484 3.32273 5.37132 1.29201 5.6548 0.3671L5.66082 0.347412C3.54878 0.992197 1.80777 2.48736 0.836838 4.43388C1.62299 4.67215 2.98739 5.05933 4.44955 5.36077Z" fill="#363636"/>
<path d="M0.382354 5.54932C0.13408 6.32165 0 7.14516 0 8.00002C0 8.33442 0.0205181 8.66402 0.0603657 8.98768L0.186446 9.02973L0.187451 9.03004L0.188686 9.0305L0.189554 9.03073C0.230133 9.04421 1.41947 9.43697 2.98574 9.82669C3.4277 9.93663 3.89567 10.0453 4.37338 10.1449C4.26686 9.40101 4.2 8.66814 4.2 8.00002C4.2 7.54196 4.23142 7.05351 4.2855 6.55194C2.69279 6.2281 1.22833 5.80735 0.446453 5.56946L0.441013 5.5678L0.382354 5.54932Z" fill="#363636"/>
<path d="M8 11.8C8.66812 11.8 9.40107 11.7331 10.145 11.6266C9.82979 13.1371 9.42713 14.5333 9.19787 15.2812C9.12381 15.523 9.09433 15.6179 9.04335 15.7454C9.01791 15.8091 8.992 15.8674 8.95566 15.9435C8.64229 15.9808 8.32335 16 8 16C7.67665 16 7.35772 15.9808 7.04434 15.9435C7.008 15.8674 6.9821 15.8091 6.95665 15.7454C6.90568 15.618 6.87619 15.523 6.80213 15.2813C6.57288 14.5334 6.17026 13.1373 5.85507 11.6269C6.5965 11.733 7.3296 11.8 8 11.8Z" fill="#363636"/>
<path d="M2.696 10.9911C1.70555 10.7447 0.86198 10.4971 0.347404 10.3392C1.12196 12.8763 3.12367 14.878 5.66082 15.6525L5.6548 15.6329C5.40728 14.8253 4.92874 13.1746 4.58812 11.4121C3.92571 11.284 3.28169 11.1368 2.696 10.9911Z" fill="#363636"/>
<path d="M15.6329 10.3452C14.8253 10.5927 13.1745 11.0713 11.4119 11.4119C11.0713 13.1744 10.5928 14.8252 10.3452 15.6329L10.3392 15.6525C12.8763 14.878 14.878 12.8763 15.6526 10.3392L15.6329 10.3452Z" fill="#363636"/>
<path d="M0.0840378 9.008C0.111733 9.01158 0.134308 9.01539 0.141798 9.01706C0.148358 9.01866 0.158636 9.02141 0.162362 9.0224L0.170598 9.02476L0.175032 9.02613L0.179695 9.02758L0.183604 9.0288C0.181409 9.02811 0.13696 9.01699 0.0840378 9.008Z" fill="#363636"/>
</g>
<defs>
<clipPath id="clip0_1_44">
<rect width="16" height="16" fill="white"/>
</clipPath>
</defs>
</svg>
